<svg width="26" height="26" viewBox="0 0 26 26" fill="none" xmlns="http://www.w3.org/2000/svg">
<path d="M13 3.34166C14.8367 3.34166 16.325 4.82999 16.325 6.66666C16.325 8.50333 14.8367 9.99166 13 9.99166C11.1634 9.99166 9.67504 8.50333 9.67504 6.66666C9.67504 4.82999 11.1634 3.34166 13 3.34166ZM13 17.5917C17.7025 17.5917 22.6584 19.9033 22.6584 20.9167V22.6583H3.34171V20.9167C3.34171 19.9033 8.29754 17.5917 13 17.5917ZM13 0.333328C9.50087 0.333328 6.66671 3.16749 6.66671 6.66666C6.66671 10.1658 9.50087 13 13 13C16.4992 13 19.3334 10.1658 19.3334 6.66666C19.3334 3.16749 16.4992 0.333328 13 0.333328ZM13 14.5833C8.77254 14.5833 0.333374 16.705 0.333374 20.9167V25.6667H25.6667V20.9167C25.6667 16.705 17.2275 14.5833 13 14.5833Z" fill="#B3995B"/>
</svg>
