<svg width="124" height="42" viewBox="0 0 124 42" fill="none" xmlns="http://www.w3.org/2000/svg">
<rect x="0.5" y="0.5" width="123" height="41" rx="20.5" fill="white" stroke="#888888"/>
<path d="M18.296 13.672H17.048L21.368 25H22.584L26.92 13.672H25.688L22.008 23.512H21.976L18.296 13.672ZM29.6915 17.512H28.6035V25H29.6915V17.512ZM29.9155 14.632C29.9155 14.184 29.5315 13.864 29.1475 13.864C28.7635 13.864 28.3795 14.184 28.3795 14.632C28.3795 15.08 28.7635 15.4 29.1475 15.4C29.5315 15.4 29.9155 15.08 29.9155 14.632ZM33.6555 20.68C33.7515 19.4 34.8235 18.232 36.2795 18.232C37.8315 18.232 38.6955 19.272 38.7595 20.68H33.6555ZM39.8635 21.032C39.8635 18.984 38.6315 17.32 36.2795 17.32C34.1515 17.32 32.5035 19 32.5035 21.256C32.5035 23.512 34.1515 25.192 36.3755 25.192C37.6075 25.192 38.7115 24.728 39.5915 23.608L38.7755 22.968C38.3595 23.64 37.4955 24.264 36.3755 24.264C34.8395 24.264 33.6715 23.048 33.6395 21.544H39.8475C39.8635 21.352 39.8635 21.176 39.8635 21.032ZM41.6397 17.512L44.0077 25H45.1917L47.1597 18.936H47.1917L49.1917 25H50.3757L52.7437 17.512H51.5917L49.7997 23.592H49.7677L47.7197 17.512H46.6637L44.6477 23.592H44.6157L42.8077 17.512H41.6397ZM60.456 22.024H66.312L67.56 25H68.84L63.976 13.672H62.856L57.96 25H59.224L60.456 22.024ZM63.384 14.952L65.88 20.968H60.888L63.384 14.952ZM72.0231 12.904H70.9351V25H72.0231V12.904ZM76.5144 12.904H75.4264V25H76.5144V12.904Z" fill="black"/>
<path d="M105 12.625H89C88.7348 12.625 88.4804 12.7172 88.2929 12.8813C88.1054 13.0454 88 13.2679 88 13.5V15.7663C88 16.2239 88.213 16.6736 88.583 16.9974L94 21.7372V28.375C94.0002 28.5241 94.0439 28.6706 94.1269 28.8008C94.2099 28.931 94.3295 29.0405 94.4744 29.1189C94.6193 29.1973 94.7847 29.2421 94.9549 29.2489C95.1251 29.2558 95.2945 29.2245 95.447 29.1581L99.447 27.4081C99.786 27.2594 100 26.9566 100 26.625V21.7372L105.417 16.9974C105.787 16.6736 106 16.2239 106 15.7663V13.5C106 13.2679 105.895 13.0454 105.707 12.8813C105.52 12.7172 105.265 12.625 105 12.625ZM98.293 20.7564C98.2 20.8375 98.1262 20.9339 98.0759 21.0401C98.0256 21.1463 97.9998 21.2601 98 21.375V26.0842L96 26.9592V21.375C96.0002 21.2601 95.9744 21.1463 95.9241 21.0401C95.8738 20.9339 95.8 20.8375 95.707 20.7564L90 15.7663V14.375H104.001L104.003 15.7601L98.293 20.7564Z" fill="#333333"/>
</svg>
