<svg width="39" height="13" viewBox="0 0 39 13" fill="none" xmlns="http://www.w3.org/2000/svg">
<path d="M11.1492 12V0.672H8.49319L8.55719 8.064H8.50919L3.96519 0.672H0.845187V12H3.50119L3.43719 4.592H3.48519L8.04519 12H11.1492ZM15.9138 7.104C15.9778 6.288 16.7138 5.584 17.7218 5.584C18.7618 5.584 19.2898 6.272 19.2898 7.104H15.9138ZM21.7058 8.112C21.7058 5.392 20.0578 3.776 17.7058 3.776C15.2898 3.776 13.4018 5.44 13.4018 8.048C13.4018 10.736 15.3858 12.256 17.7858 12.256C19.4018 12.256 20.6498 11.648 21.4018 10.56L19.5778 9.408C19.2258 9.888 18.6498 10.24 17.8178 10.24C16.8738 10.24 15.9938 9.616 15.9138 8.736H21.6898C21.7058 8.544 21.7058 8.32 21.7058 8.112ZM31.9617 12L28.8097 7.824L31.6737 4.032H28.7137L27.2097 6.16L25.7217 4.032H22.6657L25.5457 7.824L22.3617 12H25.4017L27.1617 9.552L28.8737 12H31.9617ZM38.1137 6V4.032H36.2417V1.936H33.6657V4.032H32.4017V6H33.6817V9.36C33.6817 11.056 34.3857 12.192 36.5137 12.192C37.0737 12.192 37.6817 12.08 38.0337 11.952L38.0017 10.032C37.8097 10.112 37.4897 10.16 37.2337 10.16C36.4817 10.16 36.2417 9.776 36.2417 9.04V6H38.1137Z" fill="black"/>
</svg>
